<svg width="18" height="18" viewBox="0 0 18 18" fill="none" xmlns="http://www.w3.org/2000/svg">
<path d="M17.28 0H0.72C0.32175 0 0 0.32175 0 0.72V17.28C0 17.6783 0.32175 18 0.72 18H17.28C17.6783 18 18 17.6783 18 17.28V0.72C18 0.32175 17.6783 0 17.28 0ZM13.32 9.54C13.32 9.639 13.239 9.72 13.14 9.72H9.72V13.14C9.72 13.239 9.639 13.32 9.54 13.32H8.46C8.361 13.32 8.28 13.239 8.28 13.14V9.72H4.86C4.761 9.72 4.68 9.639 4.68 9.54V8.46C4.68 8.361 4.761 8.28 4.86 8.28H8.28V4.86C8.28 4.761 8.361 4.68 8.46 4.68H9.54C9.639 4.68 9.72 4.761 9.72 4.86V8.28H13.14C13.239 8.28 13.32 8.361 13.32 8.46V9.54Z" fill="white"/>
</svg>
