<svg width="88" height="44" viewBox="0 0 88 44" fill="none" xmlns="http://www.w3.org/2000/svg">
<path d="M17.558 18L15.583 12.125H13.508V18H8.38301V0.799999H17.058C18.608 0.799999 19.7747 1.01667 20.558 1.45C21.3413 1.86667 21.858 2.475 22.108 3.275C22.3747 4.05833 22.508 5.125 22.508 6.475C22.508 7.74167 22.3663 8.79167 22.083 9.625C21.7997 10.4583 21.233 11.0833 20.383 11.5L22.883 18H17.558ZM15.133 8.45C15.8497 8.45 16.3497 8.40833 16.633 8.325C16.933 8.24167 17.1247 8.075 17.208 7.825C17.308 7.575 17.358 7.15 17.358 6.55C17.358 5.93333 17.3163 5.50833 17.233 5.275C17.1497 5.025 16.958 4.85833 16.658 4.775C16.3747 4.675 15.8747 4.625 15.158 4.625H13.508V8.45H15.133ZM23.8293 18V0.799999H36.2543V4.675H28.9543V7.4H35.0793V11.225H28.9543V14.125H36.2543V18H23.8293ZM44.2381 18.2C41.7714 18.2 39.5714 18.05 37.6381 17.75V14.05C39.8714 14.2333 41.5381 14.325 42.6381 14.325C43.3881 14.325 43.9464 14.3083 44.3131 14.275C44.6964 14.225 44.9631 14.1417 45.1131 14.025C45.2464 13.925 45.3298 13.8 45.3631 13.65C45.3964 13.4833 45.4131 13.2417 45.4131 12.925C45.4131 12.5583 45.3714 12.3 45.2881 12.15C45.2214 11.9833 45.0631 11.8667 44.8131 11.8C44.5631 11.7167 44.1298 11.6333 43.5131 11.55L40.4631 11.175C39.1631 11.025 38.2798 10.5167 37.8131 9.65C37.3631 8.78333 37.1381 7.525 37.1381 5.875C37.1381 4.425 37.4214 3.31667 37.9881 2.55C38.5548 1.76667 39.3131 1.25 40.2631 1C41.2298 0.733333 42.4298 0.599999 43.8631 0.599999C45.9464 0.599999 47.8881 0.774999 49.6881 1.125V4.775C47.9214 4.575 46.2798 4.475 44.7631 4.475C43.6798 4.475 42.9964 4.55 42.7131 4.7C42.5464 4.8 42.4298 4.925 42.3631 5.075C42.3131 5.20833 42.2881 5.40833 42.2881 5.675C42.2881 6.04167 42.3131 6.3 42.3631 6.45C42.4131 6.6 42.5298 6.70833 42.7131 6.775C42.9131 6.84167 43.2464 6.90833 43.7131 6.975L46.8381 7.35C47.6048 7.45 48.2298 7.61667 48.7131 7.85C49.1964 8.08333 49.6048 8.49167 49.9381 9.075C50.3548 9.79167 50.5631 10.925 50.5631 12.475C50.5631 14.125 50.2964 15.3667 49.7631 16.2C49.2464 17.0167 48.5464 17.5583 47.6631 17.825C46.7798 18.075 45.6381 18.2 44.2381 18.2ZM54.9939 18V4.875H50.5189V0.799999H64.6439V4.875H60.1439V18H54.9939ZM72.3883 18.2C69.9216 18.2 68.1633 17.95 67.1133 17.45C66.0799 16.9333 65.4383 16.125 65.1883 15.025C64.9383 13.9083 64.8133 12.0333 64.8133 9.4C64.8133 6.76667 64.9383 4.9 65.1883 3.8C65.4383 2.68333 66.0799 1.875 67.1133 1.375C68.1633 0.858332 69.9216 0.599999 72.3883 0.599999C74.8549 0.599999 76.6049 0.858332 77.6383 1.375C78.6883 1.875 79.3383 2.68333 79.5883 3.8C79.8383 4.9 79.9633 6.76667 79.9633 9.4C79.9633 12.0333 79.8383 13.9083 79.5883 15.025C79.3383 16.125 78.6883 16.9333 77.6383 17.45C76.6049 17.95 74.8549 18.2 72.3883 18.2ZM72.3883 14.325C73.2383 14.325 73.8049 14.25 74.0883 14.1C74.3883 13.9333 74.5716 13.55 74.6383 12.95C74.7216 12.3333 74.7633 11.15 74.7633 9.4C74.7633 7.65 74.7216 6.475 74.6383 5.875C74.5716 5.25833 74.3883 4.875 74.0883 4.725C73.8049 4.55833 73.2383 4.475 72.3883 4.475C71.5383 4.475 70.9633 4.55833 70.6633 4.725C70.3799 4.875 70.1966 5.25 70.1133 5.85C70.0466 6.45 70.0133 7.63333 70.0133 9.4C70.0133 11.1667 70.0466 12.35 70.1133 12.95C70.1966 13.55 70.3799 13.9333 70.6633 14.1C70.9633 14.25 71.5383 14.325 72.3883 14.325ZM15.3036 43V32.75H15.0786L12.1036 43H8.67861L5.72861 32.75H5.50361V43H0.703613V25.8H7.75361L10.3786 34.7H10.5786L13.2036 25.8H20.2286V43H15.3036ZM21.9128 43V25.8H34.3378V29.675H27.0378V32.4H33.1628V36.225H27.0378V39.125H34.3378V43H21.9128ZM45.7216 43L40.7966 34.125H40.6716V43H35.7466V25.8H41.0216L45.4216 33.5H45.5716V25.8H50.4966V43H45.7216ZM66.1706 25.8V35.15C66.1706 37.5 66.0373 39.1917 65.7706 40.225C65.5206 41.2583 64.9123 42.0167 63.9456 42.5C62.9789 42.9667 61.3706 43.2 59.1206 43.2C56.8873 43.2 55.2789 42.9667 54.2956 42.5C53.3289 42.0167 52.7206 41.2583 52.4706 40.225C52.2206 39.1917 52.0956 37.5 52.0956 35.15V25.8H57.2206V36.1C57.2206 37.1833 57.2539 37.925 57.3206 38.325C57.3873 38.725 57.5373 38.9917 57.7706 39.125C58.0206 39.2417 58.4706 39.3 59.1206 39.3C59.7873 39.3 60.2373 39.2417 60.4706 39.125C60.7206 38.9917 60.8789 38.725 60.9456 38.325C61.0123 37.925 61.0456 37.1833 61.0456 36.1V25.8H66.1706ZM82.3622 43V32.75H82.1372L79.1622 43H75.7372L72.7872 32.75H72.5622V43H67.7622V25.8H74.8122L77.4372 34.7H77.6372L80.2622 25.8H87.2872V43H82.3622Z" fill="#4F4F52"/>
</svg>
