<svg width="45" height="45" viewBox="0 0 45 45" fill="none" xmlns="http://www.w3.org/2000/svg">
<path d="M22.5 0C18.3079 0 14.6132 2.56829 13.4289 6.3C12.1737 5.77317 10.8474 5.4878 9.47368 5.4878C6.96111 5.4878 4.55144 6.41289 2.77478 8.05955C0.998117 9.70621 0 11.9396 0 14.2683C0.00561151 16.2128 0.705775 18.1009 1.99118 19.6377C3.27658 21.1746 5.07486 22.2737 7.10526 22.7634V38.4146H37.8947V22.7634C42.0632 21.7537 45 18.2634 45 14.2683C45 11.9396 44.0019 9.70621 42.2252 8.05955C40.4486 6.41289 38.0389 5.4878 35.5263 5.4878C34.1526 5.4878 32.8263 5.77317 31.5711 6.3C30.3868 2.56829 26.6921 0 22.5 0ZM21.3158 19.7561H23.6842V35.122H21.3158V19.7561ZM14.2105 24.1463H16.5789V35.122H14.2105V24.1463ZM28.4211 24.1463H30.7895V35.122H28.4211V24.1463ZM7.10526 40.6098V42.8049C7.10526 43.3871 7.35479 43.9454 7.79896 44.3571C8.24312 44.7687 8.84554 45 9.47368 45H35.5263C36.1545 45 36.7569 44.7687 37.201 44.3571C37.6452 43.9454 37.8947 43.3871 37.8947 42.8049V40.6098H7.10526Z" fill="#4F4F52"/>
</svg>
